<svg id="Layer_1" enable-background="new 0 0 511.987 511.987" height="512" viewBox="0 0 511.987 511.987" width="512" xmlns="http://www.w3.org/2000/svg"><g><path d="m478.083 238.177c21.866-21.949 33.904-51.089 33.904-82.079 0-31.067-12.098-60.273-34.065-82.24-21.968-21.967-51.175-34.066-82.242-34.066-31.066 0-60.273 12.098-82.24 34.065-.061.061-.122.121-.183.18l-100.2 97.215c-5.264 5.093-8.187 11.911-8.247 19.212-.06 7.302 2.75 14.166 7.912 19.329 5.103 5.103 11.89 7.914 19.108 7.914 7.217 0 14.003-2.81 19.107-7.914l27.09-27.09c3.319-3.319 7.671-4.979 12.021-4.979 4.351 0 8.702 1.66 12.021 4.979l114.061 114.06z"/><g><path d="m116.203 249.982c-4.266-4.266-9.928-6.611-15.951-6.611-6.022 0-11.684 2.345-15.943 6.604l-51.029 51.028c-4.259 4.259-6.604 9.921-6.604 15.944s2.345 11.686 6.604 15.944c.002.002.004.005.007.007l.501.502c8.786 8.784 23.09 8.786 31.882-.007l51.028-51.027c8.791-8.792 8.791-23.097 0-31.888z"/><path d="m229.564 363.342-.496-.495c-4.266-4.266-9.928-6.611-15.951-6.611-6.022 0-11.684 2.345-15.943 6.604l-51.028 51.028c-4.259 4.259-6.604 9.921-6.604 15.944s2.345 11.686 6.604 15.944c.002.002.004.005.007.007l.501.502c8.786 8.784 23.09 8.786 31.882-.007l51.028-51.027c8.791-8.792 8.791-23.097 0-31.889z"/><path d="m172.635 306.414c-4.266-4.266-9.928-6.611-15.951-6.611-6.022 0-11.684 2.345-15.943 6.604l-51.028 51.028c-4.259 4.259-6.604 9.921-6.604 15.944s2.345 11.686 6.604 15.944c.002.002.004.005.007.007l.501.502c8.786 8.785 23.09 8.786 31.882-.007l51.028-51.027c8.791-8.792 8.791-23.097 0-31.888z"/><path d="m407.818 336.537-3.983-3.983c-.034-.034-.068-.067-.101-.101l-113.686-113.686-15.069 15.068c-11.525 11.526-26.849 17.873-43.148 17.873s-31.624-6.347-43.15-17.873c-11.66-11.66-18.006-27.162-17.87-43.651s6.736-31.885 18.586-43.351l49.66-48.181-28.701-28.7c-48.046-48.045-126.219-48.045-174.265 0-23.274 23.275-36.091 54.219-36.091 87.134s12.817 63.859 36.092 87.133l2.987 2.902 21.187-21.187c10.681-10.681 24.881-16.563 39.985-16.563 15.106 0 29.306 5.883 39.986 16.563l.496.495c10.874 10.874 16.376 25.108 16.528 39.388 14.889.148 28.865 6.005 39.409 16.549l.496.495c10.875 10.875 16.376 25.109 16.528 39.389 14.889.148 28.866 6.005 39.41 16.549l.496.495c7.734 7.734 12.745 17.17 15.055 27.111 3.534.493 6.945 2.079 9.662 4.796l13.692 13.693c.057.055.118.102.175.158l31.672 31.672c8.52 8.52 22.384 8.52 30.904 0 4.127-4.128 6.401-9.615 6.401-15.452s-2.273-11.324-6.401-15.452l-18.397-18.398-27.765-27.765c-6.64-6.639-6.64-17.403 0-24.042 6.639-6.64 17.403-6.64 24.042 0l14.319 14.319c.001.001.003.002.004.004l13.442 13.442 20.286 20.285c7.479 7.478 19.648 7.48 27.129 0 3.623-3.623 5.618-8.44 5.618-13.564s-1.998-9.941-5.62-13.564z"/><path d="m263.994 404.963c-2.625 5.159-6.079 10.001-10.388 14.31l-18.555 18.555 33.85 33.851c8.521 8.52 22.383 8.52 30.904 0 8.52-8.521 8.52-22.384 0-30.905z"/></g></g></svg>